<svg width="110" height="125" viewBox="0 0 110 125" fill="none" xmlns="http://www.w3.org/2000/svg">
<path d="M105.331 48.585C105.331 48.585 107.936 49.1443 108.388 50.9962C108.84 52.8481 104.759 97.0826 104.597 98.1598C104.34 99.8542 102.911 102.004 99.6961 101.888C96.8913 101.789 58.6932 101.876 49.0773 101.901C47.8013 101.901 47.0307 100.815 46.8608 99.5187L94.1569 96.7263L105.335 48.585H105.331Z" fill="#E1E1E1"/>
<path d="M49.0692 102.518C47.5819 102.518 46.4757 101.371 46.2437 99.5973L46.1567 98.9344L93.6558 96.1297L104.867 47.8434L105.463 47.9718C105.583 47.9967 108.455 48.6388 108.993 50.8429C109.515 52.9807 105.269 97.8614 105.211 98.2467C104.875 100.451 103.036 102.618 99.6714 102.502C97.8485 102.435 79.8805 102.439 49.0734 102.514H49.0651L49.0692 102.518ZM47.6316 100.094C47.8595 100.741 48.3194 101.275 49.0692 101.275C70.8737 101.226 97.3597 101.18 99.7129 101.267C102.485 101.362 103.744 99.6056 103.976 98.0686C104.341 95.6656 108.115 52.9434 107.779 51.137C107.543 50.18 106.47 49.6331 105.782 49.3763L94.6543 97.3187L94.1903 97.3477L47.6316 100.094Z" fill="#191F28"/>
<path d="M106.391 49.7285L102.294 97.4347C102.215 98.2136 101.565 98.8102 100.782 98.8226L46.8238 99.067C46.7906 99.067 46.7741 99.0256 46.7948 99.0008L57.1108 88.7635L92.2224 88.5149L95.9759 51.1371C96.0298 50.6399 96.3902 50.2298 96.875 50.1179L104.742 48.2826C105.637 48.0754 106.474 48.8087 106.383 49.7243L106.391 49.7285Z" fill="#E1E1E1"/>
<path d="M46.8323 99.6884C46.5588 99.6884 46.3185 99.5268 46.2191 99.2783C46.1155 99.0297 46.1735 98.748 46.3682 98.5574L56.8624 88.142H57.1151L91.6674 87.8975L95.3671 51.0748C95.4458 50.3125 96.001 49.687 96.7426 49.5129L104.61 47.6818C105.236 47.5368 105.87 47.6942 106.35 48.1168C106.831 48.5394 107.071 49.1442 107.013 49.7822L102.916 97.4844C102.804 98.5864 101.892 99.4233 100.794 99.444L46.8323 99.6843V99.6884ZM57.3761 89.3849L48.2492 98.4414L100.782 98.2052C101.242 98.1969 101.631 97.8406 101.677 97.3766L105.774 49.6704C105.799 49.4342 105.708 49.2105 105.53 49.0572C105.352 48.9039 105.12 48.8459 104.892 48.8956L97.0284 50.7268C96.8006 50.7807 96.6307 50.9713 96.6059 51.2074L92.7943 89.1363L57.3761 89.3849Z" fill="#191F28"/>
<path d="M104.535 51.8868L100.943 93.3372L93.5522 87.5081L97.1359 52.7279C97.1608 52.4461 97.3596 52.2224 97.6206 52.181L103.893 51.224C104.258 51.1701 104.577 51.4933 104.539 51.8868H104.535Z" fill="#242728"/>
<path d="M95.8186 97.8283H91.9242C91.7668 97.8283 91.6218 97.7495 91.5389 97.617L86.8573 90.2963C86.6626 89.9898 86.8822 89.5879 87.2426 89.5879H89.1816C89.31 89.5879 89.4343 89.6417 89.5213 89.737L96.1625 97.0577C96.4317 97.3518 96.2204 97.8241 95.8227 97.8241L95.8186 97.8283Z" fill="#3B4144"/>
<path d="M89.6954 97.8282H85.7968C85.598 97.8282 85.424 97.7039 85.3618 97.5133L82.9133 90.1885C82.8139 89.8903 83.0335 89.5837 83.3483 89.5837H85.4323C85.5938 89.5837 85.7471 89.6707 85.83 89.8115L90.0931 97.1363C90.2712 97.4429 90.0517 97.824 89.6954 97.824V97.8282Z" fill="#3B4144"/>
<path d="M83.7419 97.8283H79.7646C79.516 97.8283 79.3172 97.6335 79.3089 97.385L79.0686 90.0602C79.0603 89.8033 79.2675 89.5879 79.5243 89.5879H81.687C81.89 89.5879 82.0722 89.7246 82.1261 89.9235L84.181 97.2482C84.2639 97.5382 84.0443 97.8283 83.7419 97.8283Z" fill="#3B4144"/>
<path d="M78.1653 97.8283H74.1964C73.8981 97.8283 73.6785 97.5507 73.7448 97.2607L75.3895 89.9483C75.4351 89.737 75.6257 89.5879 75.8411 89.5879H77.9996C78.2523 89.5879 78.4595 89.7909 78.4636 90.0395L78.6293 97.3518C78.6335 97.6128 78.4263 97.8241 78.1653 97.8241V97.8283Z" fill="#3B4144"/>
<path d="M72.3447 97.8282H68.4048C68.0692 97.8282 67.8496 97.476 67.9988 97.1736L71.6446 89.8364C71.7191 89.6831 71.8766 89.5837 72.0506 89.5837H74.1759C74.4701 89.5837 74.6855 89.8613 74.6151 90.143L72.788 97.4802C72.7383 97.6832 72.556 97.824 72.3489 97.824L72.3447 97.8282Z" fill="#3B4144"/>
<path d="M8.55525 115.759C12.8225 115.759 16.2819 112.3 16.2819 108.032C16.2819 103.765 12.8225 100.306 8.55525 100.306C4.28794 100.306 0.828613 103.765 0.828613 108.032C0.828613 112.3 4.28794 115.759 8.55525 115.759Z" fill="white"/>
<path d="M8.55523 116.592C3.83639 116.592 0 112.755 0 108.036C0 103.318 3.84053 99.4813 8.55523 99.4813C13.2699 99.4813 17.1105 103.318 17.1105 108.036C17.1105 112.755 13.2699 116.592 8.55523 116.592ZM8.55523 101.134C4.75198 101.134 1.65719 104.229 1.65719 108.032C1.65719 111.836 4.75198 114.93 8.55523 114.93C12.3585 114.93 15.4533 111.836 15.4533 108.032C15.4533 104.229 12.3585 101.134 8.55523 101.134Z" fill="#191F28"/>
<path d="M36.872 58.5654C36.872 58.5654 13.34 68.0196 9.284 89.389C5.22803 110.758 19.1567 123.888 27.4053 123.888H73.761C74.8879 123.888 76.0189 123.888 77.1458 123.888C77.6719 123.888 78.0862 123.44 78.0448 122.914C77.7009 118.705 76.3793 114.877 73.5953 111.637C70.72 108.293 66.6599 106.035 62.2601 105.551C61.6428 105.484 61.0255 105.447 60.4041 105.447L56.9074 69.3785L36.872 58.5612V58.5654Z" fill="white"/>
<path d="M77.1462 124.712H27.4057C23.3373 124.712 18.4693 121.886 14.7034 117.337C11.1901 113.091 5.70484 103.794 8.4682 89.2316C10.6101 77.942 18.1462 69.9917 24.0872 65.3101C30.4964 60.2598 36.3214 57.8901 36.5658 57.7948L36.9262 57.6498L57.6908 68.8648L61.1584 104.639C61.5562 104.656 61.958 104.685 62.3516 104.73C66.8385 105.223 71.1637 107.548 74.2212 111.098C76.9639 114.288 78.4843 118.129 78.8696 122.848C78.9069 123.328 78.7453 123.805 78.418 124.161C78.0908 124.513 77.6309 124.716 77.1462 124.72V124.712ZM36.8309 59.481C33.9102 60.7653 13.7546 70.2858 10.0964 89.5423C7.45732 103.438 12.6485 112.258 15.9794 116.281C19.3891 120.395 23.8717 123.055 27.4057 123.055H77.1462C77.1462 123.055 77.1793 123.055 77.2 123.034C77.2207 123.009 77.2207 122.989 77.2166 122.98C76.8603 118.626 75.4724 115.092 72.9659 112.18C70.1777 108.94 66.246 106.827 62.1693 106.375C61.5852 106.309 60.9886 106.28 60.4044 106.28H59.6504L56.1247 69.9047L36.8309 59.4851V59.481Z" fill="#191F28"/>
<path d="M55.6191 67.3153C55.6191 67.3153 62.3722 79.3589 71.5778 82.7313C75.6338 84.2186 83.8866 82.868 83.6132 90.5739C83.3439 98.284 70.2231 97.0659 59.9444 93.5486L58.3204 93.1426" fill="white"/>
<path d="M74.4201 97.1198C69.7137 97.1198 64.1787 95.8728 59.7126 94.3482L58.1258 93.9505L58.5277 92.343L60.218 92.7697C67.7044 95.3301 77.0177 96.7014 80.9536 93.996C82.1384 93.1799 82.7392 92.053 82.7889 90.5532C82.9546 85.8717 79.8557 85.0472 75.1078 84.3305C73.7116 84.1192 72.3942 83.9203 71.2963 83.5185C67.3398 82.0684 63.3749 78.9653 59.5096 74.2962C56.6551 70.8451 54.9689 67.8539 54.8984 67.7296L56.3443 66.9176C56.4106 67.0336 63.0601 78.7333 71.8639 81.9607C72.8043 82.3046 74.0431 82.4952 75.3564 82.694C79.2881 83.2906 84.6739 84.1068 84.4461 90.6154C84.3756 92.6496 83.5139 94.2488 81.894 95.3674C80.067 96.6268 77.4113 97.1281 74.4242 97.1281L74.4201 97.1198Z" fill="#191F28"/>
<path d="M36.0103 88.5481C36.0103 88.5481 50.0383 80.0799 58.3243 93.1468C61.8416 98.6901 60.5698 104.702 60.1637 106.595" fill="white"/>
<path d="M60.1682 107.428C60.1102 107.428 60.0522 107.423 59.9942 107.411C59.5467 107.316 59.2609 106.877 59.3561 106.425C59.758 104.556 60.976 98.8723 57.6244 93.5942C54.3804 88.4817 49.8646 86.1865 44.2012 86.7707C39.8842 87.2181 36.4704 89.244 36.4372 89.2606C36.0478 89.4968 35.5382 89.3683 35.3021 88.9789C35.0659 88.5853 35.1902 88.0799 35.5838 87.8437C35.7329 87.7526 50.4073 79.1145 59.0288 92.7076C61.4898 96.5895 62.1485 101.325 60.9802 106.773C60.8973 107.162 60.5535 107.428 60.1723 107.428H60.1682Z" fill="#191F28"/>
<path d="M40.916 34.7972C40.916 34.7972 43.8534 -2.80027 58.7183 1.11069C73.5833 5.01751 50.3868 38.3352 47.611 40.1954L40.916 34.7972Z" fill="white"/>
<path d="M47.5654 41.2229L40.0542 35.17L40.0873 34.735C40.1702 33.662 42.2541 8.32776 51.6711 1.63687C53.8751 0.0708318 56.3153 -0.372466 58.9296 0.311124C61.9912 1.11486 63.8058 3.0952 64.3278 6.19414C65.3139 12.0689 61.3159 20.7815 57.7861 27.0581C54.1237 33.5667 49.4794 39.9427 48.075 40.8873L47.5695 41.2271L47.5654 41.2229ZM41.7777 34.4326L47.5903 39.1183C50.8135 35.8329 64.2823 15.9343 62.6914 6.47172C62.2812 4.03979 60.914 2.54833 58.507 1.91445C56.3651 1.35101 54.4427 1.70316 52.6322 2.98748C44.4789 8.78349 42.0967 31.0437 41.7818 34.4326H41.7777Z" fill="#191F28"/>
<path d="M23.8014 34.9752C16.4518 44.2099 14.5999 61.0842 24.8703 68.6948C30.9563 73.2065 40.1123 73.2396 47.2382 71.657C53.3698 70.294 59.5552 68.5291 63.8846 63.6238C72.6056 53.7387 69.1048 39.4828 59.6878 31.4413C49.8731 23.0642 34.6933 24.0502 25.5456 33.0322C24.9325 33.6329 24.3524 34.2833 23.7973 34.9752H23.8014Z" fill="white"/>
<path d="M38.8402 73.4386C33.1022 73.4386 27.9898 72.0425 24.3771 69.362C20.3584 66.3832 17.8478 61.859 17.1145 56.2743C16.1409 48.8584 18.5107 40.2949 23.1508 34.4658C23.7267 33.7407 24.3357 33.0613 24.9654 32.444C29.5641 27.924 35.7289 25.2477 42.3245 24.9038C48.9988 24.5516 55.3541 26.6563 60.2262 30.8158C65.6618 35.4559 69.1916 42.2048 69.6597 48.8626C70.0658 54.6006 68.2843 59.8953 64.5059 64.1791C59.9528 69.3412 53.5685 71.1061 47.4203 72.4733C44.4829 73.1279 41.5912 73.4469 38.8444 73.4469L38.8402 73.4386ZM43.7165 26.561C37.3363 26.561 30.894 28.9432 26.1255 33.6247C25.5454 34.1965 24.982 34.8221 24.4476 35.4932C20.0726 40.9909 17.8395 49.0614 18.7551 56.0548C19.4263 61.1837 21.7132 65.3226 25.3632 68.0279C30.3264 71.7069 38.4384 72.7592 47.0599 70.8451C52.9429 69.5401 59.0372 67.8622 63.263 63.0729C66.739 59.133 68.3796 54.2567 68.0067 48.9703C67.5675 42.7475 64.2573 36.4254 59.149 32.067C54.8238 28.3756 49.2929 26.5527 43.7165 26.5527V26.561Z" fill="#191F28"/>
<path d="M34.0395 49.9271C34.7672 49.812 35.2267 48.8942 35.0658 47.8772C34.9049 46.8602 34.1845 46.1291 33.4568 46.2442C32.7291 46.3594 32.2696 47.2771 32.4305 48.2941C32.5914 49.3111 33.3117 50.0422 34.0395 49.9271Z" fill="#191F28"/>
<path d="M52.5761 46.9963C53.3038 46.8812 53.7633 45.9634 53.6024 44.9464C53.4415 43.9294 52.7211 43.1983 51.9934 43.3135C51.2657 43.4286 50.8062 44.3463 50.9671 45.3633C51.128 46.3803 51.8484 47.1114 52.5761 46.9963Z" fill="#191F28"/>
<path d="M36.4915 28.0483C35.0414 23.5076 31.4122 19.5925 26.4406 19.2611C21.3199 18.9214 16.0004 21.5646 13.991 26.4491C11.8491 31.6486 13.9827 37.167 18.4779 40.2162C25.0279 44.6616 29.9415 39.0479 29.4733 32.4937" fill="white"/>
<path d="M23.018 42.6316C21.4147 42.6316 19.7078 42.0515 18.0092 40.8998C13.0086 37.5067 11.0365 31.4331 13.2199 26.1343C15.2458 21.2166 20.6979 18.043 26.4898 18.4366C31.3288 18.7598 35.5629 22.4346 37.2781 27.7997C37.419 28.2347 37.1787 28.7029 36.7395 28.8396C36.3045 28.9763 35.8363 28.736 35.6996 28.301C34.1957 23.5863 30.5375 20.3631 26.3821 20.0855C21.2904 19.7541 16.5094 22.4926 14.7528 26.7598C12.8429 31.4 14.5249 36.529 18.9413 39.5243C21.2945 41.1235 23.511 41.4052 25.3463 40.3488C27.5628 39.0727 28.8886 35.9365 28.6483 32.5476C28.6151 32.0918 28.959 31.6941 29.4147 31.661C29.8705 31.6361 30.2682 31.9717 30.3013 32.4274C30.5913 36.5 28.9714 40.1706 26.1749 41.7822C25.1972 42.3457 24.1325 42.6274 23.0221 42.6274L23.018 42.6316Z" fill="#191F28"/>
<path d="M44.7726 57.4302C44.4328 57.4302 44.1055 57.3764 43.8155 57.2687C43.2397 57.0532 42.8461 56.6389 42.7384 56.1335C42.6306 55.628 42.8171 55.0853 43.2521 54.6544C43.6208 54.2899 44.147 54.0164 44.7311 53.8921C46.061 53.6063 47.2625 54.1449 47.4738 55.1143C47.5815 55.6239 47.3951 56.1625 46.96 56.5934C46.5913 56.9579 46.0652 57.2314 45.481 57.3557C45.2449 57.4054 45.0046 57.4302 44.7726 57.4302ZM45.4437 55.0563C45.307 55.0563 45.1579 55.0729 44.9963 55.106C44.6441 55.1806 44.3293 55.338 44.1304 55.5369C44.0061 55.657 43.9398 55.7896 43.9564 55.8725C43.973 55.9553 44.089 56.0465 44.2547 56.1045C44.5198 56.2039 44.872 56.2163 45.2241 56.1418C45.5763 56.0672 45.8912 55.9098 46.09 55.7109C46.2143 55.5908 46.2806 55.4582 46.264 55.3753C46.235 55.2345 45.9202 55.0563 45.4479 55.0563H45.4437Z" fill="#191F28"/>
<path d="M46.0908 61.0015C45.8008 61.0015 45.5439 60.7985 45.4818 60.5043L44.7402 56.871C44.6698 56.5354 44.8894 56.2081 45.2249 56.1376C45.5605 56.0714 45.8878 56.2868 45.9582 56.6224L46.6998 60.2558C46.7703 60.5913 46.5507 60.9186 46.2151 60.9891C46.1737 60.9973 46.1322 61.0015 46.0908 61.0015Z" fill="#191F28"/>
<path d="M51.2942 87.823C51.2942 87.823 60.7111 91.4481 59.7748 103.848L59.3647 106.599C59.3647 106.599 59.4351 107.299 59.8411 107.419C60.2471 107.539 61.0633 107.477 61.1213 106.309C61.1213 106.309 75.5678 106.603 77.2043 123.096H69.6185C69.6185 123.096 68.6242 110.812 60.3963 110.812H55.926C55.0809 110.812 54.389 110.137 54.3724 109.288C54.2895 104.954 55.6153 99.0712 51.29 87.823H51.2942Z" fill="#EFEFEF"/>
<path d="M64.8628 39.2177C64.8628 39.2177 70.4765 47.1142 66.7934 57.1733C66.7934 57.1733 64.7592 63.5494 58.1968 67.0584C58.1968 67.0584 67.9493 60.38 64.8628 39.2177Z" fill="#EFEFEF"/>
<path d="M25.7734 70.2941C25.7734 70.2941 26.631 75.4397 35.4431 75.9078C44.2552 76.376 57.1233 71.3837 57.1233 71.3837L56.2657 69.7473C56.2657 69.7473 51.3521 72.088 42.8507 73.1776C34.3494 74.2672 27.3312 71.5412 25.7734 70.2941Z" fill="#EFEFEF"/>
</svg>
