<svg width="20" height="20" viewBox="0 0 20 20" fill="none" xmlns="http://www.w3.org/2000/svg">
<path fill-rule="evenodd" clip-rule="evenodd" d="M5.13481 3.33325H14.8657C15.305 3.33324 15.6838 3.33322 15.9958 3.35873C16.3252 3.38566 16.6527 3.44512 16.9679 3.60574C17.4374 3.84496 17.821 4.22679 18.0611 4.69809C18.2217 5.01325 18.2811 5.3408 18.308 5.66989C18.3334 5.98171 18.3334 6.36017 18.3334 6.79858V13.2017C18.3334 13.64 18.3334 14.0184 18.308 14.3301C18.2811 14.6591 18.2216 14.9864 18.0611 15.3015C17.8212 15.7723 17.4379 16.1548 16.9679 16.3943C16.6528 16.5548 16.3255 16.6142 15.9965 16.6411C15.6848 16.6666 15.3065 16.6666 14.8681 16.6666H5.13208C4.69367 16.6666 4.31521 16.6666 4.00339 16.6411C3.6743 16.6142 3.34675 16.5549 3.03159 16.3943C2.56071 16.1544 2.17868 15.7714 1.93923 15.3015C1.77859 14.9862 1.71915 14.6586 1.69223 14.3292C1.66672 14.0171 1.66673 13.6382 1.66675 13.1989V6.80132C1.66673 6.36201 1.66672 5.98296 1.69222 5.67074C1.71913 5.34127 1.77855 5.01346 1.93923 4.69809C2.17892 4.22769 2.56118 3.84542 3.03159 3.60574C3.34695 3.44505 3.67476 3.38564 4.00424 3.35873C4.31646 3.33322 4.6955 3.33324 5.13481 3.33325ZM4.7176 5.00095L8.92531 8.17846C8.92611 8.17906 8.9269 8.17967 8.9277 8.18027C9.54253 8.63095 9.67461 8.70986 9.79105 8.73998C9.92792 8.77538 10.072 8.77538 10.2089 8.73998C10.3258 8.70976 10.4588 8.63013 11.0772 8.17679L11.2143 8.07169C11.3073 8.00042 11.4422 7.89716 11.6097 7.76909C11.9447 7.51295 12.4105 7.15747 12.9334 6.76007C13.6643 6.20461 14.5093 5.56543 15.2656 5.00083C15.1385 4.99999 14.9958 4.99992 14.8336 4.99992H5.16691C4.99736 4.99992 4.849 5 4.7176 5.00095ZM16.6596 6.04087C15.8214 6.66284 14.8053 7.43088 13.9419 8.08703C13.4205 8.48324 12.9561 8.83772 12.622 9.09314C12.4549 9.22085 12.3205 9.32377 12.2279 9.39473L12.0851 9.50414L12.07 9.51548C12.0367 9.53993 12.0037 9.56423 11.9709 9.58831C11.5051 9.931 11.0958 10.2321 10.6262 10.3535C10.2156 10.4597 9.7843 10.4597 9.37371 10.3535C8.90439 10.2322 8.49593 9.93167 8.03091 9.58957C7.99824 9.56553 7.96528 9.54129 7.93201 9.51689C7.92538 9.51203 7.91882 9.50707 7.91234 9.50201L3.34029 6.04936C3.33373 6.25059 3.33342 6.50137 3.33342 6.83342V13.1667C3.33342 13.6472 3.33406 13.9574 3.35335 14.1934C3.37185 14.4197 3.40323 14.5036 3.42424 14.5448C3.50438 14.7021 3.63191 14.8296 3.78824 14.9093C3.82925 14.9302 3.91303 14.9615 4.13913 14.98C4.37492 14.9993 4.68463 14.9999 5.16417 14.9999H14.836C15.3155 14.9999 15.6251 14.9993 15.8607 14.98C16.0865 14.9615 16.1701 14.9302 16.2113 14.9093C16.3685 14.8292 16.4964 14.7012 16.5761 14.5448C16.597 14.5037 16.6284 14.42 16.6468 14.1942C16.6661 13.9586 16.6667 13.6491 16.6667 13.1696V6.83068C16.6667 6.49526 16.6664 6.24293 16.6596 6.04087Z" fill="#8B95A1"/>
</svg>
