<svg width="20" height="20" viewBox="0 0 20 20" fill="none" xmlns="http://www.w3.org/2000/svg">
<path fill-rule="evenodd" clip-rule="evenodd" d="M5.10836 13.1105C4.12902 13.1105 3.33325 13.9089 3.33325 14.882C3.33325 15.8552 4.12902 16.6502 5.10836 16.6502C6.08771 16.6502 6.88596 15.8602 6.88596 14.882C6.88596 13.9039 6.09092 13.1105 5.10836 13.1105ZM3.335 7.86297V10.4187C4.99935 10.4187 6.56345 11.0696 7.74155 12.2487C8.91849 13.4244 9.56833 14.9959 9.56833 16.6666H12.1351C12.135 11.8129 8.18562 7.8637 3.335 7.8637V7.86297ZM3.33821 3.33325V5.8896C9.27325 5.8896 14.1033 10.7244 14.1033 16.666L16.6666 16.6663C16.6666 9.3164 10.6863 3.33354 3.33836 3.33354V3.33325H3.33821Z" fill="#8B95A1"/>
</svg>
