<svg width="20" height="20" viewBox="0 0 20 20" fill="none" xmlns="http://www.w3.org/2000/svg">
<g clip-path="url(#clip0_113_57)">
<path d="M12.5086 19.9999C11.1077 19.9989 9.72257 19.7042 8.44262 19.135C7.16267 18.5657 6.01633 17.7346 5.07761 16.6951C4.13179 15.6544 3.41819 14.4246 2.98414 13.0872C2.55009 11.7498 2.40553 10.3354 2.56003 8.93793C2.80913 6.76303 3.7583 4.72789 5.26465 3.13889C6.77099 1.5499 8.75298 0.493058 10.9122 0.127486C12.3081 -0.0880252 13.7325 -0.0300054 15.1062 0.298312C15.4659 0.39069 15.7944 0.577469 16.0577 0.839322C16.3209 1.10117 16.5094 1.42859 16.6036 1.78768C16.6978 2.14678 16.6942 2.52451 16.5934 2.88178C16.4925 3.23906 16.298 3.56291 16.0299 3.81982C12.2285 7.29133 12.5586 12.6894 16.7026 15.8276C16.9957 16.0575 17.2217 16.3617 17.3572 16.7085C17.4927 17.0553 17.5327 17.4321 17.4732 17.7996C17.4136 18.1671 17.2566 18.512 17.0184 18.7983C16.7803 19.0846 16.4697 19.3018 16.1191 19.4275C14.9535 19.8081 13.7348 20.0014 12.5086 19.9999V19.9999ZM12.572 1.66742C12.1039 1.66629 11.6365 1.70168 11.174 1.77325C9.37626 2.07716 7.72595 2.95656 6.47146 4.27908C5.21696 5.60159 4.42618 7.29565 4.21813 9.10625C4.08809 10.2729 4.20793 11.4539 4.56971 12.5706C4.93148 13.6874 5.5269 14.7144 6.31639 15.5835C7.47209 16.8165 8.96092 17.6877 10.6023 18.0915C12.2436 18.4953 13.9669 18.4143 15.5631 17.8584C15.6319 17.8326 15.6926 17.7891 15.7392 17.7323C15.7858 17.6755 15.8165 17.6074 15.8283 17.5349C15.84 17.4624 15.8324 17.3881 15.8062 17.3195C15.78 17.2509 15.7361 17.1904 15.6789 17.1442C10.7363 13.4127 10.3437 6.73969 14.8887 2.60404C14.9408 2.55564 14.9784 2.49366 14.9973 2.42506C15.0161 2.35646 15.0155 2.28397 14.9954 2.21573C14.978 2.1433 14.9412 2.07699 14.8889 2.02397C14.8366 1.97094 14.7708 1.93323 14.6986 1.91491C14.0023 1.74702 13.2882 1.66392 12.572 1.66742V1.66742Z" fill="#6B7684"/>
</g>
<defs>
<clipPath id="clip0_113_57">
<rect width="20" height="20" fill="white"/>
</clipPath>
</defs>
</svg>
