<svg width="24" height="24" viewBox="0 0 24 24" fill="none" xmlns="http://www.w3.org/2000/svg">
<path fill-rule="evenodd" clip-rule="evenodd" d="M6.13013 15.7327C4.95492 15.7327 4 16.6907 4 17.8586C4 19.0264 4.95492 19.9804 6.13013 19.9804C7.30535 19.9804 8.26325 19.0323 8.26325 17.8586C8.26325 16.6848 7.3092 15.7327 6.13013 15.7327ZM4.0021 9.43566V12.5026C5.99932 12.5026 7.87624 13.2836 9.28996 14.6985C10.7023 16.1094 11.4821 17.9951 11.4821 20H14.5622C14.5621 14.1756 9.82285 9.43653 4.0021 9.43653V9.43566ZM4.00595 4V7.06762C11.128 7.06762 16.9241 12.8694 16.9241 19.9993L20 19.9997C20 11.1798 12.8237 4.00035 4.00613 4.00035V4H4.00595Z" fill="#6B7684"/>
</svg>
