<svg width="16" height="17" viewBox="0 0 16 17" fill="none" xmlns="http://www.w3.org/2000/svg">
<g clip-path="url(#clip0_1_200)">
<path d="M11.3335 0.5H4.66683C3.7831 0.501059 2.93587 0.852588 2.31098 1.47748C1.68608 2.10237 1.33455 2.9496 1.3335 3.83333V13.8333C1.3335 14.5406 1.61445 15.2189 2.11454 15.719C2.61464 16.219 3.29292 16.5 4.00016 16.5H11.3335C12.2172 16.4989 13.0645 16.1474 13.6894 15.5225C14.3142 14.8976 14.6658 14.0504 14.6668 13.1667V3.83333C14.6658 2.9496 14.3142 2.10237 13.6894 1.47748C13.0645 0.852588 12.2172 0.501059 11.3335 0.5V0.5ZM13.3335 3.83333V11.1667H5.3335V1.83333H11.3335C11.8639 1.83333 12.3726 2.04405 12.7477 2.41912C13.1228 2.79419 13.3335 3.3029 13.3335 3.83333ZM4.00016 1.948V11.1667C3.53192 11.1663 3.0719 11.2898 2.66683 11.5247V3.83333C2.66689 3.41979 2.79514 3.01644 3.03392 2.6788C3.2727 2.34116 3.61027 2.08585 4.00016 1.948ZM11.3335 15.1667H4.00016C3.64654 15.1667 3.3074 15.0262 3.05735 14.7761C2.80731 14.5261 2.66683 14.187 2.66683 13.8333C2.66683 13.4797 2.80731 13.1406 3.05735 12.8905C3.3074 12.6405 3.64654 12.5 4.00016 12.5H13.3335V13.1667C13.3335 13.6971 13.1228 14.2058 12.7477 14.5809C12.3726 14.956 11.8639 15.1667 11.3335 15.1667Z" fill="#6B7684"/>
</g>
<defs>
<clipPath id="clip0_1_200">
<rect width="16" height="16" fill="white" transform="translate(0 0.5)"/>
</clipPath>
</defs>
</svg>
