<svg width="current" height="current" viewBox="0 0 16 16" fill="none" xmlns="http://www.w3.org/2000/svg">
<g clip-path="url(#clip0_1_107)">
<path d="M11.6665 1.27771C10.9158 1.28939 10.1814 1.49895 9.53765 1.88522C8.89385 2.2715 8.36338 2.82082 7.99981 3.47771C7.63624 2.82082 7.10577 2.2715 6.46197 1.88522C5.81817 1.49895 5.08384 1.28939 4.33314 1.27771C3.13644 1.3297 2.00895 1.85321 1.197 2.73386C0.385049 3.61452 -0.0453576 4.78073 -0.000190567 5.97771C-0.000190567 9.00904 3.19048 12.3197 5.86648 14.5644C6.46396 15.0665 7.21938 15.3417 7.99981 15.3417C8.78024 15.3417 9.53566 15.0665 10.1331 14.5644C12.8091 12.3197 15.9998 9.00904 15.9998 5.97771C16.045 4.78073 15.6146 3.61452 14.8026 2.73386C13.9907 1.85321 12.8632 1.3297 11.6665 1.27771ZM9.27648 13.5444C8.91913 13.8453 8.46698 14.0103 7.99981 14.0103C7.53264 14.0103 7.08049 13.8453 6.72314 13.5444C3.29781 10.6704 1.33314 7.91304 1.33314 5.97771C1.28757 5.13419 1.57739 4.30686 2.13938 3.67618C2.70138 3.04549 3.48997 2.66261 4.33314 2.61104C5.17632 2.66261 5.9649 3.04549 6.5269 3.67618C7.0889 4.30686 7.37872 5.13419 7.33314 5.97771C7.33314 6.15452 7.40338 6.32409 7.52841 6.44911C7.65343 6.57414 7.823 6.64438 7.99981 6.64438C8.17662 6.64438 8.34619 6.57414 8.47121 6.44911C8.59624 6.32409 8.66648 6.15452 8.66648 5.97771C8.6209 5.13419 8.91072 4.30686 9.47272 3.67618C10.0347 3.04549 10.8233 2.66261 11.6665 2.61104C12.5097 2.66261 13.2982 3.04549 13.8602 3.67618C14.4222 4.30686 14.712 5.13419 14.6665 5.97771C14.6665 7.91304 12.7018 10.6704 9.27648 13.5417V13.5444Z" fill="#6B7684"/>
</g>
<defs>
<clipPath id="clip0_1_107">
<rect width="16" height="16" fill="white"/>
</clipPath>
</defs>
</svg>
