<svg width="24" height="24" viewBox="0 0 24 24" fill="none" xmlns="http://www.w3.org/2000/svg">
<path d="M18.7259 14.4443C18.0336 14.4448 17.3519 14.614 16.7395 14.9373C16.1271 15.2605 15.6025 15.728 15.2109 16.2995L9.25111 13.6056C9.67441 12.5823 9.67606 11.4329 9.25569 10.4084L15.2072 7.70071C15.7876 8.54103 16.6496 9.14527 17.6369 9.40383C18.6241 9.66239 19.6713 9.55815 20.5884 9.11001C21.5055 8.66187 22.2317 7.89952 22.6354 6.96124C23.0392 6.02296 23.0936 4.9709 22.7888 3.9959C22.4841 3.02089 21.8403 2.18752 20.9744 1.64695C20.1085 1.10638 19.0777 0.894424 18.069 1.04952C17.0603 1.20461 16.1406 1.71649 15.4766 2.4923C14.8126 3.26811 14.4484 4.25647 14.45 5.27809C14.4539 5.51989 14.4784 5.76092 14.5232 5.99855L8.19632 8.87673C7.58867 8.3068 6.82794 7.92697 6.00761 7.78391C5.18728 7.64084 4.34307 7.74078 3.5787 8.07144C2.81432 8.40211 2.16308 8.94909 1.70497 9.64519C1.24686 10.3413 1.00184 11.1562 1.00001 11.9898C0.998181 12.8234 1.23962 13.6394 1.69467 14.3375C2.14972 15.0356 2.79856 15.5854 3.56147 15.9195C4.32439 16.2535 5.16815 16.3571 5.9891 16.2177C6.81005 16.0782 7.57243 15.7017 8.18259 15.1345L14.526 18.0017C14.4819 18.2391 14.4577 18.4798 14.4536 18.7212C14.4535 19.5674 14.7039 20.3946 15.1734 21.0982C15.6429 21.8018 16.3103 22.3503 17.0911 22.6742C17.872 22.9981 18.7313 23.0829 19.5603 22.9178C20.3893 22.7528 21.1507 22.3454 21.7484 21.747C22.3461 21.1487 22.7531 20.3864 22.9179 19.5565C23.0828 18.7266 22.9981 17.8664 22.6745 17.0846C22.351 16.3029 21.8032 15.6348 21.1003 15.1648C20.3974 14.6949 19.5711 14.4441 18.7259 14.4443ZM18.7259 2.83346C19.2089 2.83328 19.6811 2.9765 20.0828 3.24501C20.4845 3.51352 20.7977 3.89526 20.9826 4.34194C21.1676 4.78862 21.2161 5.28018 21.122 5.75445C21.0278 6.22872 20.7953 6.66439 20.4539 7.00637C20.1124 7.34835 19.6773 7.58127 19.2036 7.67567C18.7298 7.77007 18.2388 7.72171 17.7925 7.53671C17.3463 7.35171 16.9648 7.03838 16.6965 6.63634C16.4281 6.23431 16.2849 5.76163 16.2849 5.27809C16.2854 4.63004 16.5427 4.00866 17.0003 3.55034C17.458 3.09201 18.0786 2.83419 18.7259 2.83346ZM5.29748 14.4443C4.81447 14.4445 4.34226 14.3012 3.94056 14.0327C3.53886 13.7642 3.22573 13.3825 3.04077 12.9358C2.8558 12.4891 2.80731 11.9976 2.90143 11.5233C2.99555 11.049 3.22805 10.6133 3.56953 10.2714C3.911 9.92939 4.34611 9.69647 4.81983 9.60207C5.29355 9.50767 5.78459 9.55603 6.23085 9.74103C6.67711 9.92603 7.05854 10.2394 7.32691 10.6414C7.59527 11.0434 7.73851 11.5161 7.73851 11.9997C7.73779 12.6476 7.4804 13.2689 7.02281 13.7271C6.56521 14.1854 5.94475 14.4433 5.29748 14.4443ZM18.7259 21.1658C18.2429 21.1658 17.7708 21.0225 17.3692 20.7539C16.9677 20.4852 16.6547 20.1034 16.4698 19.6567C16.285 19.21 16.2367 18.7185 16.3309 18.2443C16.4251 17.7701 16.6577 17.3345 16.9992 16.9926C17.3407 16.6507 17.7758 16.4179 18.2495 16.3236C18.7232 16.2292 19.2142 16.2777 19.6604 16.4627C20.1066 16.6477 20.488 16.961 20.7563 17.3631C21.0246 17.7651 21.1679 18.2377 21.1679 18.7212C21.1674 19.3694 20.9099 19.9909 20.4521 20.4493C19.9942 20.9076 19.3734 21.1654 18.7259 21.1658Z" fill="#6B7684"/>
</svg>
