<svg width="16" height="16" viewBox="0 0 16 16" fill="none" xmlns="http://www.w3.org/2000/svg">
<g clip-path="url(#clip0_1_111)">
<path d="M15.8049 14.8617L15.0869 14.1437L13.9336 12.9924L15.7929 11.133C15.872 11.0538 15.9299 10.9558 15.9612 10.8483C15.9925 10.7407 15.9962 10.627 15.972 10.5177C15.9477 10.4083 15.8963 10.3068 15.8225 10.2226C15.7487 10.1384 15.6548 10.0741 15.5496 10.0357L9.57024 7.86638C9.33206 7.78029 9.0743 7.76382 8.8271 7.81889C8.57991 7.87396 8.35351 7.99829 8.1744 8.17733C7.99529 8.35637 7.87087 8.58272 7.81571 8.82989C7.76054 9.07706 7.77691 9.33484 7.8629 9.57304L10.0382 15.5524C10.0764 15.6577 10.1406 15.7517 10.2247 15.8257C10.3088 15.8997 10.4102 15.9513 10.5196 15.9757C10.5671 15.986 10.6156 15.9912 10.6642 15.991C10.841 15.991 11.0106 15.9207 11.1356 15.7957L12.9929 13.933L14.1442 15.0844L14.8622 15.8024C14.988 15.9238 15.1564 15.991 15.3312 15.9895C15.506 15.988 15.6732 15.9179 15.7968 15.7943C15.9204 15.6706 15.9905 15.5034 15.992 15.3286C15.9935 15.1538 15.9263 14.9854 15.8049 14.8597V14.8617ZM10.9336 14.1097L9.11757 9.11638L14.1109 10.9324L10.9336 14.1097Z" fill="#6B7684"/>
<path d="M6.66667 13.3333C5.34813 13.3333 4.0592 12.9423 2.96287 12.2098C1.86654 11.4773 1.01206 10.4361 0.507473 9.21789C0.00288856 7.99972 -0.129134 6.65927 0.128101 5.36607C0.385336 4.07286 1.02027 2.88497 1.95262 1.95262C2.88497 1.02027 4.07286 0.385336 5.36607 0.128101C6.65927 -0.129134 7.99972 0.00288856 9.21789 0.507473C10.4361 1.01206 11.4773 1.86654 12.2098 2.96287C12.9423 4.0592 13.3333 5.34813 13.3333 6.66667C13.3333 6.84348 13.2631 7.01305 13.1381 7.13807C13.0131 7.2631 12.8435 7.33334 12.6667 7.33334C12.4899 7.33334 12.3203 7.2631 12.1953 7.13807C12.0702 7.01305 12 6.84348 12 6.66667C12 5.61184 11.6872 4.58069 11.1012 3.70363C10.5151 2.82657 9.68219 2.14298 8.70765 1.73931C7.73311 1.33564 6.66075 1.23003 5.62619 1.43581C4.59162 1.6416 3.64131 2.14955 2.89543 2.89543C2.14955 3.64131 1.6416 4.59162 1.43581 5.62619C1.23003 6.66075 1.33564 7.73311 1.73931 8.70765C2.14298 9.68219 2.82657 10.5151 3.70363 11.1012C4.58069 11.6872 5.61184 12 6.66667 12C6.84348 12 7.01305 12.0702 7.13807 12.1953C7.2631 12.3203 7.33334 12.4899 7.33334 12.6667C7.33334 12.8435 7.2631 13.0131 7.13807 13.1381C7.01305 13.2631 6.84348 13.3333 6.66667 13.3333Z" fill="#6B7684"/>
<path d="M5.38952 10.4134C5.3019 10.4135 5.21514 10.3962 5.13419 10.3627C4.52676 10.1105 3.99091 9.71227 3.57411 9.20345C3.15731 8.69463 2.87241 8.09089 2.74465 7.44568C2.61688 6.80047 2.6502 6.13371 2.84164 5.50445C3.03309 4.87519 3.37675 4.30284 3.8422 3.83811C4.30764 3.37337 4.88051 3.03059 5.51006 2.84011C6.13962 2.64963 6.80643 2.61733 7.45144 2.74608C8.09646 2.87483 8.69977 3.16065 9.20795 3.57823C9.71613 3.99582 10.1135 4.53227 10.3649 5.14008C10.4001 5.22129 10.4188 5.3087 10.4199 5.39721C10.421 5.48572 10.4044 5.57357 10.3712 5.65562C10.338 5.73767 10.2888 5.81228 10.2264 5.8751C10.164 5.93792 10.0898 5.98769 10.008 6.02151C9.92616 6.05533 9.83844 6.07252 9.74993 6.07208C9.66141 6.07163 9.57386 6.05357 9.4924 6.01893C9.41094 5.98429 9.33719 5.93378 9.27546 5.87034C9.21373 5.80689 9.16525 5.73179 9.13285 5.64941C8.96489 5.24457 8.69974 4.88737 8.36084 4.60942C8.02194 4.33146 7.61976 4.14133 7.18988 4.05584C6.76 3.97035 6.31567 3.99214 5.89621 4.11928C5.47676 4.24642 5.0951 4.47499 4.78503 4.78477C4.47496 5.09455 4.24602 5.47598 4.11848 5.89531C3.99094 6.31465 3.96872 6.75895 4.0538 7.18892C4.13888 7.61888 4.32863 8.02124 4.60626 8.3604C4.88389 8.69957 5.24084 8.96507 5.64552 9.13341C5.78814 9.19243 5.90586 9.29911 5.97859 9.43524C6.05133 9.57138 6.07457 9.72853 6.04437 9.87989C6.01416 10.0313 5.93236 10.1674 5.81294 10.2652C5.69352 10.363 5.54387 10.4163 5.38952 10.4161V10.4134Z" fill="#6B7684"/>
</g>
<defs>
<clipPath id="clip0_1_111">
<rect width="16" height="16" fill="white"/>
</clipPath>
</defs>
</svg>
